<svg xmlns="http://www.w3.org/2000/svg" width="1024" height="407" viewBox="0 0 1024 407" version="1.1">
	<path d="M 486.500 11.685 C 447.404 16.702, 413.713 44.402, 400.979 82 C 394.109 102.282, 394.316 127.429, 401.532 149.095 C 405.128 159.895, 405.558 160.345, 411.027 159.054 C 413.487 158.473, 420.476 157.709, 426.557 157.356 C 444.058 156.341, 462.081 160.023, 477.812 167.828 C 484.139 170.967, 494.618 177.572, 495.477 178.963 C 495.737 179.384, 493.715 181.614, 490.983 183.918 L 486.015 188.106 481.758 185.186 C 470.734 177.625, 458.227 173.011, 443.221 170.970 C 434.211 169.745, 421.597 170.098, 415.746 171.740 L 412.992 172.512 415.494 176.029 L 417.996 179.546 424.748 178.919 C 433.740 178.085, 447.005 179.449, 455.552 182.087 C 463.073 184.408, 474.100 189.640, 477.819 192.652 L 480.139 194.531 476.524 199.265 C 474.535 201.869, 472.747 204, 472.550 204 C 472.353 204, 469.429 202.438, 466.053 200.530 C 462.676 198.621, 456.445 195.981, 452.207 194.662 C 444.306 192.205, 430 190.353, 430 191.788 C 430 193.984, 440.341 200.257, 446.214 201.623 C 454.159 203.470, 467.139 209.814, 467.749 212.147 C 468.003 213.119, 469.831 214.449, 471.812 215.103 C 474.963 216.143, 475.544 216.071, 476.457 214.529 C 483.918 201.924, 495.800 189.442, 506.332 183.145 C 527.520 170.477, 552.639 167.736, 575.419 175.606 C 579.224 176.920, 582.407 177.884, 582.492 177.748 C 582.578 177.612, 583.647 176.052, 584.869 174.282 L 587.090 171.065 583.295 169.469 C 572.074 164.753, 564.893 163.505, 549 163.512 C 531.514 163.519, 523.352 165.211, 510.456 171.501 C 503.558 174.866, 503.483 174.878, 501.528 172.947 C 499.568 171.013, 499.577 171, 502.877 171 C 510.800 171, 516.652 165.477, 515.613 158.980 L 515.011 155.216 523.255 152.958 C 529.123 151.351, 535.331 150.561, 544.785 150.218 C 560.300 149.656, 569.774 150.923, 582 155.195 C 586.675 156.828, 591.217 158.387, 592.094 158.658 C 593.990 159.245, 596.732 153.417, 600.210 141.409 C 602.253 134.354, 602.493 131.449, 602.437 114.500 C 602.378 96.950, 602.174 94.851, 599.761 87 C 589.015 52.047, 565.209 27.352, 531.420 16.108 C 518.168 11.697, 500.193 9.928, 486.500 11.685 M 482.345 48.603 L 464.500 64.309 464.195 59.655 L 463.890 55 454.945 55 L 446 55 445.998 67.750 L 445.995 80.500 434.498 90.442 C 428.174 95.910, 423 100.972, 423 101.692 C 423 102.610, 424.633 103, 428.481 103 L 433.962 103 434.231 125.750 L 434.500 148.500 442.538 149.229 C 453.542 150.226, 467.970 154.037, 477.856 158.555 C 485.545 162.071, 486.216 162.213, 487.766 160.663 C 489.316 159.112, 489.305 159, 487.607 159 C 486.606 159, 482.974 157.658, 479.536 156.017 C 472.019 152.430, 465.797 146.007, 462.252 138.175 C 460.839 135.054, 458.443 131.066, 456.927 129.313 C 453.022 124.797, 451.305 116.521, 452.868 109.751 C 454.217 103.905, 457.283 100, 460.522 100 C 462.111 100, 463.208 98.863, 464.598 95.773 C 467.173 90.050, 476.363 80.863, 482.752 77.626 C 490.474 73.713, 500.268 71.684, 507.801 72.437 C 521.827 73.838, 531.337 80.093, 537.130 91.726 C 538.984 95.448, 541.335 99.116, 542.356 99.877 C 550.468 105.928, 547.244 131, 538.354 131 C 537.069 131, 533.971 132.562, 531.469 134.472 C 523.035 140.910, 514.297 141.590, 509.799 136.158 L 507.506 133.390 502.805 136.312 C 486.145 146.668, 471.711 132.441, 478.411 112.268 C 481.953 101.604, 492.935 93.176, 504.498 92.248 C 511.272 91.704, 520.868 93.491, 521.614 95.436 C 521.867 96.095, 520.966 103.077, 519.612 110.950 C 516.410 129.566, 517.569 133.138, 524.721 126.704 C 528.831 123.006, 531.065 109.607, 529.003 101.014 C 525.782 87.585, 512.333 79.934, 497.369 83.018 C 489.868 84.565, 486.793 86.178, 480.972 91.623 C 474.064 98.085, 470.970 105.649, 470.485 117.269 C 469.999 128.884, 471.604 134.231, 477.563 140.859 C 485.569 149.763, 495.632 151.773, 511 147.535 C 531.748 141.814, 548.285 139.976, 561.750 141.894 L 567 142.641 567 122.821 L 567 103 572.500 103 C 576.510 103, 578 102.626, 578 101.620 C 578 100.436, 503.282 34.033, 501.010 33.198 C 500.559 33.032, 492.159 39.964, 482.345 48.603 M 498.500 104.861 C 492.560 108.530, 489 114.883, 489 121.813 C 489 129.571, 494.978 131.257, 501.030 125.205 C 504.764 121.471, 506.881 116.216, 508.464 106.750 L 509.091 103 505.295 103.004 C 503.208 103.006, 500.150 103.841, 498.500 104.861 M 534.500 185.636 C 523.735 187.901, 510.632 194.712, 502.456 202.294 C 493.474 210.623, 488.374 217.546, 490.593 218.397 C 495.283 220.197, 497.732 219.025, 505.629 211.206 C 518.535 198.426, 532.145 192.726, 549.500 192.833 C 557.283 192.881, 565.338 194.242, 571.127 196.489 C 572.495 197.019, 572.734 196.392, 572.627 192.562 C 572.512 188.420, 572.226 187.917, 569.500 187.054 C 559.216 183.800, 545.808 183.257, 534.500 185.636 M 537.033 207.536 C 531.290 209.148, 520.920 215.140, 522.794 215.765 C 523.394 215.965, 526.839 215.243, 530.449 214.160 C 535.131 212.755, 537.942 212.426, 540.256 213.013 C 542.040 213.465, 546.858 214.337, 550.962 214.950 C 555.372 215.610, 560.281 217.116, 562.962 218.632 C 565.458 220.043, 569.413 221.784, 571.750 222.501 L 576 223.804 576 221.006 C 576 217.507, 570.792 212.710, 563.241 209.253 C 556.358 206.102, 544.836 205.347, 537.033 207.536" stroke="none" fill="black" fill-rule="evenodd"/>
</svg>